# xmcd CD database file
#
# Track frame offsets:
#	150
#	20305
#	42500
#	69000
#	80105
#	104830
#	124880
#	133765
#	144435
#
# Disc length: 2098 seconds
#
# Revision: 0
# Processed by: cddbd v1.5.2PL0 Copyright (c) Steve Scherf et al.
# Submitted via: Feurio! 1.68 - http://www.feurio.com
#
DISCID=80083009
DTITLE=Martha and Fontella Bass w/David Peaston - Promises, A Family Portrait Of 
DTITLE=Faith
DYEAR=1900
DGENRE=Gospel
TTITLE0=A Loving Mother
TTITLE1=Behold Thy Son, Behold Thy Mother
TTITLE2=He'll Be Coming Back
TTITLE3=The Voice Of The Lord
TTITLE4=Promises
TTITLE5=No Ways Tired
TTITLE6=Something Down In Me
TTITLE7=Whe The Lord Told Me
TTITLE8=When The Gates Swing Open
EXTD=
EXTT0=
EXTT1=
EXTT2=
EXTT3=
EXTT4=
EXTT5=
EXTT6=
EXTT7=
EXTT8=
PLAYORDER=
